<svg xmlns="http://www.w3.org/2000/svg" width="24" height="24" viewBox="0 0 24 24"><defs><style>.a{fill:#14171a;}</style></defs><path class="a" d="M19.971,2.464a7.99,7.99,0,0,1-1.847,1.778v.549A12.184,12.184,0,0,1,5.772,17,12.217,12.217,0,0,1,.33,15.74a.25.25,0,0,1-.15-.23V15.4a.26.26,0,0,1,.26-.26A8.844,8.844,0,0,0,5.552,13.3a4.363,4.363,0,0,1-3.884-2.557.26.26,0,0,1,.26-.36,3.992,3.992,0,0,0,1.518-.14A4.355,4.355,0,0,1,0,6.44.26.26,0,0,1,.36,6.18a3.992,3.992,0,0,0,1.578.34A4.277,4.277,0,0,1,.23,1.585a.539.539,0,0,1,.909-.18,12.339,12.339,0,0,0,8.4,3.876,4,4,0,0,1-.12-1,4.353,4.353,0,0,1,7.5-2.937A8.674,8.674,0,0,0,19.3.516a.17.17,0,0,1,.18,0,.17.17,0,0,1,0,.18,4.365,4.365,0,0,1-1.757,2,8.564,8.564,0,0,0,2-.48.16.16,0,0,1,.18,0,.17.17,0,0,1,.07.25Z" transform="translate(1.999 4)"/></svg>