<svg xmlns="http://www.w3.org/2000/svg" width="24" height="24" viewBox="0 0 24 24"><path d="M.5,20a.5.5,0,0,1-.5-.5V4A4,4,0,0,1,4,0H16a4,4,0,0,1,4,4v8a4,4,0,0,1-4,4H5.943a2.984,2.984,0,0,0-2.093.85l-3,3A.492.492,0,0,1,.5,20ZM4,2A2,2,0,0,0,2,4V15.88l.46-.419A4.968,4.968,0,0,1,5.99,14H16a2,2,0,0,0,2-2V4a2,2,0,0,0-2-2Zm7.5,9h-7a.5.5,0,0,1-.5-.5v-1A.5.5,0,0,1,4.5,9h7a.5.5,0,0,1,.5.5v1A.5.5,0,0,1,11.5,11Zm4-4H4.5A.5.5,0,0,1,4,6.5v-1A.5.5,0,0,1,4.5,5h11a.5.5,0,0,1,.5.5v1A.5.5,0,0,1,15.5,7Z" transform="translate(2 2)"/></svg>