<svg xmlns="http://www.w3.org/2000/svg" width="24" height="24" viewBox="0 0 24 24"><defs><style>.a{fill:none;}.b{fill:#17bf63;}</style></defs><rect class="a" width="24" height="24"/><path class="b" d="M12,1.467a3,3,0,0,0-1.512.406v0l-7.5,4.373A2,2,0,0,0,2,7.975V18a2.015,2.015,0,0,0,2,2H20a2.015,2.015,0,0,0,2-2V7.975a2,2,0,0,0-.992-1.727l-7.5-4.373A3,3,0,0,0,12,1.467Zm0,2a1,1,0,0,1,.5.137L20,7.975v.049l-6.943,4.32a2,2,0,0,1-2.113,0L4,8.023V7.975L11.5,3.6A1,1,0,0,1,12,3.465Zm0,1.742a.5.5,0,0,0-.354.146L9.854,7.146A.5.5,0,0,0,10.207,8H11v2a1,1,0,0,0,2,0V8h.793a.5.5,0,0,0,.353-.854L12.354,5.354A.5.5,0,0,0,12,5.207Z" transform="translate(0 1.533)"/></svg>