<svg xmlns="http://www.w3.org/2000/svg" width="24" height="24" viewBox="0 0 24 24"><defs><style>.a,.b{fill:#657786;}.a{opacity:0;}</style></defs><g transform="translate(-607 -352)"><rect class="a" width="24" height="24" transform="translate(607 352)"/><path class="b" d="M21,9V7a1,1,0,0,0-1-1H18V4a1,1,0,0,0-1-1H15a1,1,0,0,0-1,1V6H10V4A1,1,0,0,0,9,3H7A1,1,0,0,0,6,4V6H4A1,1,0,0,0,3,7V9a1,1,0,0,0,1,1H6v4H4a1,1,0,0,0-1,1v2a1,1,0,0,0,1,1H6v2a1,1,0,0,0,1,1H9a1,1,0,0,0,1-1V18h4v2a1,1,0,0,0,1,1h2a1,1,0,0,0,1-1V18h2a1,1,0,0,0,1-1V15a1,1,0,0,0-1-1H18V10h2A1,1,0,0,0,21,9Zm-7,5H10V10h4Z" transform="translate(607 352)"/></g></svg>