<svg xmlns="http://www.w3.org/2000/svg" width="24" height="24" viewBox="0 0 24 24"><defs><style>.a,.b{fill:#17bf63;}.a{opacity:0;}</style></defs><g transform="translate(-623 -354)"><rect class="a" width="24" height="24" transform="translate(623 354)"/><path class="b" d="M13.42,2.358a1.99,1.99,0,0,0-2.839,0C8.282,4.686,4,9.611,4,14a8,8,0,0,0,16,0C20,9.611,15.718,4.686,13.42,2.358ZM11.645,19.98a3.084,3.084,0,0,1-2.638-3.218,9.347,9.347,0,0,1,2.216-4.873.994.994,0,0,1,1.552-.005C13.663,12.995,15,15,15,17A3,3,0,0,1,11.645,19.98Z" transform="translate(623 354.237)"/></g></svg>