<svg xmlns="http://www.w3.org/2000/svg" width="24" height="24" viewBox="0 0 24 24"><defs><style>.a{fill:none;}.b{fill:#90a4ae;}</style></defs><rect class="a" width="24" height="24"/><path class="b" d="M8,3A2.015,2.015,0,0,0,6,5V9H5a2,2,0,0,0-2,2,1,1,0,1,0,0,2v6a2,2,0,0,0,2,2H19a2,2,0,0,0,2-2V13a1,1,0,1,0,0-2,2,2,0,0,0-2-2H18V5a2.015,2.015,0,0,0-2-2ZM8,5h8V9H14a1,1,0,0,0,0,2h1.5a.5.5,0,0,1,.5.5v1a.5.5,0,0,1-.5.5h-7a.5.5,0,0,1-.5-.5v-1a.5.5,0,0,1,.5-.5H10a1,1,0,0,0,0-2H8ZM5.5,16h1a.5.5,0,0,1,.5.5v1a.5.5,0,0,1-.5.5h-1a.5.5,0,0,1-.5-.5v-1A.5.5,0,0,1,5.5,16Zm4,0h1a.5.5,0,0,1,.5.5v1a.5.5,0,0,1-.5.5h-1a.5.5,0,0,1-.5-.5v-1A.5.5,0,0,1,9.5,16Zm4,0h1a.5.5,0,0,1,.5.5v1a.5.5,0,0,1-.5.5h-1a.5.5,0,0,1-.5-.5v-1A.5.5,0,0,1,13.5,16Zm4,0h1a.5.5,0,0,1,.5.5v1a.5.5,0,0,1-.5.5h-1a.5.5,0,0,1-.5-.5v-1A.5.5,0,0,1,17.5,16Z"/></svg>