<svg xmlns="http://www.w3.org/2000/svg" width="24" height="24" viewBox="0 0 24 24"><defs><style>.a,.b{fill:#657786;}.a{opacity:0;}</style></defs><g transform="translate(-799 -363)"><rect class="a" width="24" height="24" transform="translate(799 363)"/><path class="b" d="M11.678,2.182a1.02,1.02,0,0,0-.9.791l-.555,2.445L7.514,8.43A2,2,0,0,0,7,9.768V19a2,2,0,0,0,2,2h8.031a1.874,1.874,0,0,0,1.713-1.113l3-6.756A2.919,2.919,0,0,0,22,11.941V11a2.006,2.006,0,0,0-2-2H13a13.312,13.312,0,0,0,1-4.137,2.64,2.64,0,0,0-1.893-2.627A.991.991,0,0,0,11.678,2.182ZM3.5,9A1.5,1.5,0,0,0,2,10.5v9a1.5,1.5,0,0,0,3,0v-9A1.5,1.5,0,0,0,3.5,9Z" transform="translate(799 362.823)"/></g></svg>