<svg xmlns="http://www.w3.org/2000/svg" width="20.335" height="20.12" viewBox="0 0 20.335 20.12"><defs><style>.a{fill:#ccd6dd;}</style></defs><path class="a" d="M2.67,1.561a.986.986,0,0,0-.7.291l-.016.014a.99.99,0,0,0,0,1.4L2.979,4.289A1.99,1.99,0,0,0,2,6V18a2,2,0,0,0,2,2H18.691l1.391,1.391a.99.99,0,0,0,1.4,0l.014-.014a.99.99,0,0,0,0-1.4L3.369,1.852A.986.986,0,0,0,2.67,1.561ZM8.338,4,22,17.662V6a2,2,0,0,0-2-2ZM18,8a1,1,0,1,1-1,1A1,1,0,0,1,18,8ZM8.5,12.8a.5.5,0,0,1,.393.18L11,15.51l1.4-1.8L15.691,17H6.021a.5.5,0,0,1-.393-.807l2.488-3.2A.5.5,0,0,1,8.5,12.8Z" transform="translate(-1.665 -1.561)"/></svg>